<svg width="34" height="17" viewBox="0 0 34 17" fill="none" xmlns="http://www.w3.org/2000/svg">
<path fill-rule="evenodd" clip-rule="evenodd" d="M10.7527 7.23953C10.6928 7.32882 10.6418 7.4606 10.6662 7.6742L11.2302 12.6124C11.6884 16.6243 6.43241 18.5266 4.2167 15.1509L1.87003 11.5756L4.52765 9.83122L6.87433 13.4065C6.9923 13.5862 7.11582 13.6548 7.21901 13.6851C7.33835 13.7201 7.48973 13.7187 7.64424 13.6628C7.79874 13.6069 7.91593 13.511 7.98524 13.4078C8.04516 13.3185 8.09615 13.1867 8.07176 12.9731L7.50779 8.03491C7.04961 4.02306 12.3056 2.12068 14.5213 5.49642L17.2486 9.65161C17.3666 9.83134 17.4901 9.89996 17.5933 9.93021C17.7126 9.96519 17.864 9.96382 18.0185 9.9079C18.173 9.85198 18.2902 9.75614 18.3595 9.65288C18.4194 9.5636 18.4704 9.43181 18.446 9.21822L17.882 4.28003C17.4239 0.268181 22.6798 -1.63421 24.8955 1.74154L33.6707 15.111L31.0131 16.8554L22.2379 3.48591C22.1199 3.30618 21.9964 3.23756 21.8932 3.20732C21.7739 3.17233 21.6225 3.1737 21.468 3.22963C21.3135 3.28555 21.1963 3.38139 21.127 3.48465C21.0671 3.57393 21.0161 3.70572 21.0405 3.91932L21.6044 8.85751C22.0626 12.8694 16.8067 14.7717 14.591 11.396L11.8636 7.24079C11.7457 7.06106 11.6222 6.99244 11.519 6.9622C11.3996 6.92721 11.2482 6.92859 11.0937 6.98451C10.9392 7.04043 10.822 7.13627 10.7527 7.23953Z" fill="#171717"/>
<circle cx="1.68298" cy="8.20541" r="1.68298" fill="#171717"/>
</svg>
