<svg width="20" height="20" viewBox="0 0 20 20" fill="none" xmlns="http://www.w3.org/2000/svg">
<path d="M18.8 10.2083C18.8 9.55831 18.7417 8.93331 18.6333 8.33331H10V11.8791H14.9333C14.7208 13.025 14.075 13.9958 13.1042 14.6458V16.9458H16.0667C17.8 15.35 18.8 13 18.8 10.2083Z" fill="#4285F4"/>
<path d="M10 19.1667C12.475 19.1667 14.55 18.3459 16.0667 16.9459L13.1042 14.6459C12.2833 15.1959 11.2333 15.5209 10 15.5209C7.61252 15.5209 5.59168 13.9084 4.87085 11.7417H1.80835V14.1167C3.31668 17.1125 6.41668 19.1667 10 19.1667Z" fill="#34A853"/>
<path d="M4.87087 11.7417C4.68754 11.1917 4.58337 10.6042 4.58337 10C4.58337 9.39586 4.68754 8.80836 4.87087 8.25836V5.88336H1.80837C1.16671 7.16074 0.832809 8.57054 0.833375 10C0.833375 11.4792 1.18754 12.8792 1.80837 14.1167L4.87087 11.7417Z" fill="#FBBC05"/>
<path d="M10 4.47915C11.3458 4.47915 12.5542 4.94165 13.5042 5.84998L16.1333 3.22081C14.5458 1.74165 12.4708 0.833313 10 0.833313C6.41668 0.833313 3.31668 2.88748 1.80835 5.88331L4.87085 8.25831C5.59168 6.09165 7.61252 4.47915 10 4.47915Z" fill="#EA4335"/>
</svg>
