<svg width="158" height="71" viewBox="0 0 158 71" fill="none" xmlns="http://www.w3.org/2000/svg">
<path d="M107.22 53.4703V44.7162L126.688 40.4767V36.1271L111.298 39.4455V7.3472L153.605 0.646424V9.4005L122.501 14.327V17.4653L153.062 10.6979V19.0666L122.501 25.834V27.816L153.605 20.7973V30.2671L138.216 33.6405V37.99L157.684 33.6954V45.4776L107.22 53.4703Z" fill="white"/>
<path d="M55.0992 62.1105V16.6884L84.7903 11.9858V53.8292L55.0992 62.1105ZM88.5424 58.7957V10.6758L99.7445 8.90153V24.813L105.509 23.2394V34.471L99.7445 36.0447V54.8191L88.5424 58.7957ZM73.6425 24.1572L66.2469 25.3286V48.2874L73.6425 46.2902V24.1572Z" fill="white"/>
<path d="M0.585693 70.6343V61.6049L20.0535 57.3653V50.9787L3.25028 54.6861V44.3905L9.66703 42.9888V33.2987L4.06596 34.1858V24.3306L47.5694 17.4404V27.2956L41.9683 28.1827V35.7255L48.385 34.2687V44.6195L31.5819 48.382V54.8787L51.0496 50.5841V62.6416L0.585693 70.6343ZM30.9293 29.9311L20.8148 31.5331V40.4523L30.9293 38.1897V29.9311Z" fill="white"/>
</svg>
